 http://bayimg.com/lAFeNAaEO
 
http://bayimg.com/lAfEoAaeo
 
http://bayimg.com/lAFepAAeo
 
http://bayimg.com/MaFeBaAeO
 
http://bayimg.com/MAFeDAaeo
 
http://bayimg.com/MAFEeAaeO
 
http://bayimg.com/mAfEFaaEo







Seeding Time 24/7

Don't Forget To Say Thanks If You Like My Post



-=Media Info=-


Format : Windows Media
File size : 606 MiB
Duration : 35mn 59s
Overall bit rate mode : Constant
Overall bit rate : 2 355 Kbps
Maximum Overall bit rate : 2 386 Kbps
Encoded date : UTC 2009-08-16 00:24:38.609

Video
ID : 2
Format : VC-1
Format profile : MP@HL
Codec ID : WMV3
Codec ID/Info : Windows Media Video 9
Codec ID/Hint : WMV3
Description of the codec : Windows Media Video 9 - Professional
Duration : 35mn 59s
Bit rate mode : Constant
Bit rate : 2 300 Kbps
Width : 768 pixels
Height : 432 pixels
Display aspect ratio : 16:9
Frame rate : 29.970 fps
Bit depth : 8 bits
Scan type : Progressive
Compression mode : Lossy
Bits/(Pixel*Frame) : 0.231
Stream size : 592 MiB (98%)
Language : English (US)

Audio
ID : 1
Format : WMA
Format version : Version 2
Codec ID : 161
Codec ID/Info : Windows Media Audio
Description of the codec : Windows Media Audio 9 - 64 kbps, 44 kHz, stereo (A/V) 1-pass CBR
Duration : 35mn 59s
Bit rate mode : Constant
Bit rate : 64.0 Kbps
Channel(s) : 2 channels
Sampling rate : 44.1 KHz
Bit depth : 16 bits
Stream size : 16.5 MiB (3%)
Language : English (US)